<svg width="163" height="76" viewBox="0 0 163 76" fill="none" xmlns="http://www.w3.org/2000/svg">
<path d="M2.75566 0C1.24785 0 0 1.2459 0 2.75137V73.2486C0 74.7541 1.24785 76 2.75566 76H73.363C74.8708 76 76.1186 74.7541 76.1186 73.2486V2.75137C76.1186 1.2459 74.8708 0 73.363 0H2.75566Z" fill="#3E8B5E"/>
<path d="M44.3506 36.7022C43.6747 37.4809 42.9467 38.3634 42.1148 39.0902C42.5828 39.5574 44.1426 41.1148 44.6625 41.582L42.9467 42.205C42.6348 41.8935 41.231 40.5438 40.919 40.1804C39.6192 41.3225 37.9554 42.3088 35.9796 42.3088C33.7439 42.3088 32.0801 40.9591 32.0801 38.8826C32.0801 37.1175 33.2239 35.8716 35.1477 34.47C33.8479 33.2241 32.912 32.1858 32.912 30.6804C32.912 28.9673 34.2638 27.2542 36.6555 27.2542C39.2032 27.2542 40.503 28.8115 40.503 30.3689C40.503 32.082 38.9432 33.4837 37.5394 34.5738L41.075 38.0001C41.8549 37.2733 42.6868 36.3908 43.2587 35.7159L44.3506 36.7022ZM39.7751 39.0902L36.2916 35.664C34.9917 36.7022 33.8999 37.6886 33.8999 38.7268C33.8999 39.9208 34.8357 40.6995 36.1356 40.6995C37.5394 40.6995 38.7353 40.0246 39.7751 39.0902ZM38.7353 30.6285C38.7353 29.5902 37.9034 28.8634 36.7075 28.8634C35.4077 28.8634 34.6798 29.7979 34.6798 30.7323C34.6798 31.8744 35.5637 32.6531 36.3955 33.4317C37.3314 32.705 38.7353 31.6148 38.7353 30.6285Z" fill="white"/>
<path d="M14.0386 27.2021H11.335V42.1011H14.0386V27.2021Z" fill="white"/>
<path d="M19.7574 31.0957V42.1011H17.0537V27.2542H20.9012L26.2566 37.7405V27.2542H29.0642V42.1011H25.4247L19.7574 31.0957Z" fill="white"/>
<path d="M59.065 27.2542V29.9536H49.8101V33.4837H57.1932V36.1831H49.8101V42.1011H47.1064V27.2542H59.065Z" fill="white"/>
<path d="M64.7837 27.2021H62.0801V42.1011H64.7837V27.2021Z" fill="white"/>
<path d="M10.7627 50.7705C10.7627 49.1612 11.8026 48.071 13.4144 48.071C14.4022 48.071 15.0782 48.4863 15.5461 49.1093L14.8702 49.6284C14.5582 49.2131 13.9863 48.9536 13.4144 48.9536C12.3745 48.9536 11.6466 49.7842 11.6466 50.8224V52.1721C11.6466 53.47 12.2185 54.2486 13.4144 54.2486C14.0383 54.2486 14.6102 53.9891 14.9222 53.5219L15.5981 54.041C15.1302 54.6639 14.4022 55.0792 13.4664 55.0792C11.8546 55.0792 10.8147 53.9372 10.8147 52.3798V50.7705H10.7627Z" fill="white"/>
<path d="M19.8096 48.1748H21.9933C23.6051 48.1748 24.385 49.0573 24.385 50.2513C24.385 51.2376 23.8651 51.8606 23.2931 52.1721L24.437 54.8715H23.5011L22.4612 52.3797H20.6935V54.8715H19.8096V48.1748ZM22.1493 51.6529C22.7732 51.6529 23.5011 51.1857 23.5011 50.3032C23.5011 49.4726 22.9812 49.0054 21.9413 49.0054H20.6415V51.6529H22.1493Z" fill="white"/>
<path d="M28.7002 48.1749H32.7037V48.9536H29.5321V50.9263H32.0798V51.705H29.5321V54.0929H32.7037V54.8716H28.7002V48.1749ZM31.2479 46.2542H32.0278L30.9879 47.7596H30.26L31.2479 46.2542Z" fill="white"/>
<path d="M42.2704 52.224C42.2704 53.6775 41.3346 54.8715 39.5668 54.8715H37.3311V48.1748H39.5148C41.2826 48.1748 42.2185 49.3688 42.2185 50.8223V52.224H42.2704ZM41.3866 50.8743C41.3866 49.836 40.7106 49.0054 39.4628 49.0054H38.163V54.1448H39.4628C40.7106 54.1448 41.3866 53.3141 41.3866 52.2759V50.8743Z" fill="white"/>
<path d="M47.9386 48.1748H47.0547V54.8715H47.9386V48.1748Z" fill="white"/>
<path d="M52.5137 48.1748H57.0891V48.9535H55.2173V54.8715H54.3854V48.9535H52.5137V48.1748Z" fill="white"/>
<path d="M64.6276 49.5244C64.3156 49.1091 63.7957 48.8496 63.2758 48.8496C62.4959 48.8496 62.0799 49.2649 62.0799 49.7321C62.0799 50.4069 63.0158 50.7703 63.7957 51.1856C64.8876 51.7567 65.3555 52.2758 65.3555 53.1583C65.3555 54.0408 64.6276 54.9752 63.1718 54.9752C62.2879 54.9752 61.508 54.4561 61.04 53.8851L61.56 53.2621C61.9239 53.7293 62.5998 54.1446 63.1718 54.1446C64.0557 54.1446 64.4716 53.6774 64.4716 53.1064C64.4716 52.4315 63.6917 52.0681 62.7038 51.6009C61.7679 51.1337 61.144 50.6146 61.144 49.7321C61.144 48.7976 61.9239 47.967 63.2758 47.967C64.1597 47.967 64.7316 48.3823 65.1995 48.9015L64.6276 49.5244Z" fill="white"/>
<path d="M63.4323 25.1257C64.4202 25.1257 65.0961 24.5028 65.0961 23.5164C65.0961 22.4263 64.3162 21.8552 63.4323 21.8552C62.5485 21.8552 61.7686 22.4782 61.7686 23.5164C61.8205 24.3989 62.3925 25.1257 63.4323 25.1257Z" fill="white"/>
<path d="M12.6863 21.8032C11.8024 21.8032 11.0225 22.4262 11.0225 23.4644C11.0225 24.3469 11.5944 25.0737 12.6863 25.0737C13.6741 25.0737 14.3501 24.4508 14.3501 23.4644C14.3501 22.4262 13.5701 21.8032 12.6863 21.8032Z" fill="white"/>
<path d="M89.0128 30.7323C89.0128 32.2377 89.5328 33.0164 90.7806 33.0164C92.0285 33.0164 92.5484 32.1858 92.5484 30.6804V24.97H94.6801V30.8361C94.6801 33.1722 93.4843 34.9891 90.7286 34.9891C88.025 34.9891 86.8291 33.3798 86.8291 30.8361V24.97H88.9608V30.7323H89.0128Z" fill="#3E8B5E"/>
<path d="M96.6562 34.8335V27.2542H98.736V27.9291C99.1519 27.4619 99.8279 27.1504 100.764 27.1504C102.376 27.1504 103.051 28.2406 103.051 30.1094V32.6531C103.051 33.0684 103.207 33.2242 103.467 33.2242C103.675 33.2242 103.883 33.1722 104.039 33.0165L104.091 34.6777C103.779 34.8335 103.259 34.9892 102.636 34.9892C101.44 34.9892 100.92 34.4701 100.92 33.1722V30.5247C100.92 29.5384 100.556 29.1231 99.8799 29.1231C99.3079 29.1231 98.944 29.6941 98.736 30.1613V34.8335H96.6562Z" fill="#3E8B5E"/>
<path d="M114.49 34.0028C113.762 34.6257 112.774 35.041 111.63 35.041C109.187 35.041 108.095 33.4317 108.095 31.0957C108.095 28.7077 109.447 27.0984 111.526 27.0984C113.45 27.0984 114.282 28.1366 114.542 29.7459L112.93 30.317C112.826 29.4864 112.462 28.9672 111.734 28.9672C110.798 28.9672 110.278 29.7978 110.278 31.0437C110.278 32.3935 110.746 33.1722 111.89 33.1722C112.514 33.1722 113.19 32.7569 113.658 32.3416L114.49 34.0028Z" fill="#3E8B5E"/>
<path d="M119.117 27.0464C121.197 27.0464 122.601 28.4999 122.601 31.0437C122.601 33.5355 121.249 34.989 119.117 34.989C117.038 34.989 115.634 33.5355 115.634 31.0437C115.634 28.5519 117.038 27.0464 119.117 27.0464ZM119.117 33.1202C120.001 33.1202 120.521 32.4453 120.521 31.0956C120.521 29.6939 120.001 29.0191 119.117 29.0191C118.285 29.0191 117.714 29.6939 117.714 31.0956C117.714 32.4453 118.233 33.1202 119.117 33.1202Z" fill="#3E8B5E"/>
<path d="M130.556 27.2541V32.6011C130.556 33.0164 130.712 33.1721 130.972 33.1721C131.18 33.1721 131.388 33.1202 131.543 32.9644L131.595 34.6256C131.284 34.7814 130.764 34.9371 130.14 34.9371C129.308 34.9371 128.788 34.6776 128.58 34.1065C128.112 34.6776 127.384 34.9371 126.5 34.9371C124.836 34.9371 124.108 33.847 124.108 31.9781V27.2021H126.24V31.6666C126.24 32.4453 126.448 32.9644 127.228 32.9644C127.852 32.9644 128.216 32.6011 128.424 32.1858V27.2021H130.556V27.2541Z" fill="#3E8B5E"/>
<path d="M137.887 29.4345C137.575 29.2269 137.159 29.0712 136.743 29.0712C136.015 29.0712 135.703 29.6941 135.599 30.5247V34.8335H133.468V29.6422C133.468 29.2269 133.416 28.9673 133.052 28.9673C132.844 28.9673 132.636 29.0712 132.48 29.175L132.428 27.4619C132.792 27.3061 133.364 27.1504 133.988 27.1504C134.663 27.1504 135.183 27.41 135.443 28.0329C135.755 27.41 136.171 27.1504 137.003 27.1504C137.471 27.1504 137.939 27.3061 138.147 27.4619L137.887 29.4345Z" fill="#3E8B5E"/>
<path d="M141.89 32.186C141.89 32.8608 142.15 33.1204 142.67 33.1204C143.086 33.1204 143.554 32.9127 143.918 32.6532L144.438 34.3144C143.762 34.6778 143.19 34.9373 142.15 34.9373C140.798 34.9373 139.862 34.2105 139.862 32.4455V28.9155H138.771V27.2543H139.966L140.226 25.3335H141.942V27.2543H144.178V28.9155H141.942V32.186H141.89Z" fill="#3E8B5E"/>
<path d="M146.778 24.1394C147.454 24.1394 147.922 24.399 147.922 25.1257C147.922 25.8525 147.454 26.164 146.778 26.164C146.102 26.164 145.582 25.9044 145.582 25.1257C145.634 24.399 146.102 24.1394 146.778 24.1394ZM147.818 27.2542V32.6012C147.818 33.0165 147.974 33.1722 148.234 33.1722C148.442 33.1722 148.65 33.1203 148.806 32.9645L148.858 34.6257C148.546 34.7815 148.026 34.9372 147.402 34.9372C146.206 34.9372 145.686 34.4181 145.686 33.1203V27.2542H147.818Z" fill="#3E8B5E"/>
<path d="M151.977 31.6668C152.029 32.6012 152.497 33.2761 153.641 33.2761C154.369 33.2761 154.993 32.9646 155.409 32.6012L156.189 34.1586C155.513 34.7296 154.525 35.093 153.329 35.093C150.989 35.093 149.897 33.4318 149.897 31.1477C149.897 28.8116 151.249 27.1504 153.329 27.1504C155.357 27.1504 156.241 28.5001 156.241 30.2132C156.241 30.7324 156.189 31.3034 156.033 31.7706H151.977V31.6668ZM154.317 30.1094C154.369 30.0056 154.369 29.9018 154.369 29.7979C154.369 29.1231 153.953 28.8116 153.329 28.8116C152.549 28.8116 152.133 29.3307 152.081 30.1094H154.317Z" fill="#3E8B5E"/>
<path d="M162.74 29.4345C162.428 29.2269 162.012 29.0712 161.596 29.0712C160.868 29.0712 160.556 29.6941 160.452 30.5247V34.8335H158.32V29.6422C158.32 29.2269 158.268 28.9673 157.904 28.9673C157.696 28.9673 157.488 29.0712 157.332 29.175L157.28 27.4619C157.644 27.3061 158.216 27.1504 158.84 27.1504C159.516 27.1504 160.036 27.41 160.296 28.0329C160.608 27.41 161.024 27.1504 161.856 27.1504C162.324 27.1504 162.792 27.3061 163 27.4619L162.74 29.4345Z" fill="#3E8B5E"/>
<path d="M100.919 38.8828C100.711 39.0385 100.503 39.0904 100.295 39.1423C99.8274 39.2461 99.3595 39.35 98.8916 39.4538C97.6957 39.7134 97.4877 39.7653 96.2919 40.0248L94.94 40.3363C94.5761 40.4401 94.2121 40.492 93.8482 40.5959C93.6922 40.6478 93.6922 40.7516 93.6922 40.9074C93.6402 41.686 93.5882 42.4647 93.5882 43.2953C93.5362 45.839 93.6922 48.3308 94.0561 50.8227C94.1081 51.0303 94.1601 51.238 94.1601 51.4456C94.2121 51.7052 94.0561 51.9128 93.8482 51.9647C93.6402 52.0686 93.3802 51.9647 93.2243 51.7052C93.1723 51.6013 93.1203 51.4975 93.1203 51.3937C93.0683 51.238 93.0683 51.1341 93.0683 50.9784C92.6523 48.1232 92.4963 45.2161 92.6003 42.3609C92.6003 41.9456 92.6523 41.5303 92.6523 41.115C92.6523 41.0631 92.6523 41.0112 92.6003 40.9074C92.2364 40.9593 91.8724 41.0631 91.5085 41.1669C91.0405 41.2707 90.5726 41.3746 90.1046 41.5303C89.9487 41.5822 89.7927 41.5822 89.6887 41.5822C89.4287 41.5822 89.1687 41.4265 89.1168 41.2188C89.0648 41.0112 89.1168 40.8035 89.3767 40.6478C89.6367 40.4921 89.8967 40.3363 90.2086 40.4921C90.3126 40.544 90.3646 40.4921 90.4166 40.4401C91.0925 40.2325 91.8204 40.0768 92.4963 39.921C92.7563 39.8691 92.7563 39.8691 92.8083 39.5576C92.8603 38.7789 92.9643 38.3636 93.0683 37.2735C93.0683 37.1696 93.0683 37.1177 93.1203 37.0139C93.2243 36.7543 93.4322 36.6505 93.6402 36.7024C93.8482 36.7543 94.0042 36.9101 94.0042 37.2216C94.0042 37.533 93.9522 37.8445 93.9522 38.2079C93.9002 38.9347 93.9002 39.0385 93.8482 39.4538C93.8482 39.6614 93.8482 39.6615 94.0561 39.6095C94.3161 39.5576 94.5761 39.5057 94.8361 39.4019L96.3959 39.0385C97.3317 38.8308 97.2798 38.8308 98.2676 38.6232C98.9955 38.4675 99.6715 38.3117 100.399 38.2079C100.503 38.2079 100.555 38.156 100.659 38.156C100.867 38.156 101.075 38.2598 101.127 38.4675C101.179 38.5194 101.075 38.727 100.919 38.8828Z" fill="#3E8B5E"/>
<path d="M114.386 37.8444C114.178 38.0002 113.97 38.0521 113.762 38.104C113.294 38.2078 112.826 38.3116 112.358 38.4155C111.162 38.675 110.955 38.7269 109.759 38.9865L108.407 39.298C108.043 39.4018 107.679 39.4537 107.315 39.5575C107.159 39.6095 107.159 39.7133 107.159 39.869C107.107 40.6477 107.055 41.4264 107.055 42.257C107.003 44.8007 107.159 47.2925 107.523 49.7843C107.575 49.992 107.627 50.1996 107.627 50.4073C107.679 50.6668 107.523 50.8745 107.315 50.9264C107.107 51.0302 106.847 50.9264 106.691 50.6668C106.639 50.563 106.587 50.4592 106.587 50.3554C106.535 50.1996 106.535 50.0958 106.535 49.9401C106.119 47.0849 105.963 44.1778 106.067 41.3226C106.067 40.9073 106.119 40.492 106.119 40.0767C106.119 40.0248 106.119 39.9728 106.067 39.869C105.703 39.9209 105.339 40.0248 104.975 40.1286C104.507 40.2324 104.039 40.3362 103.571 40.492C103.415 40.5439 103.259 40.5439 103.155 40.5439C102.896 40.5439 102.636 40.3881 102.584 40.1805C102.532 39.9728 102.584 39.7652 102.844 39.6095C103.103 39.4537 103.363 39.298 103.675 39.4537C103.779 39.5056 103.831 39.4537 103.883 39.4018C104.559 39.1942 105.287 39.0384 105.963 38.8827C106.223 38.8308 106.223 38.8308 106.275 38.5193C106.327 37.7406 106.431 37.3253 106.535 36.2351C106.535 36.1313 106.535 36.0794 106.587 35.9756C106.691 35.716 106.899 35.6122 107.107 35.6641C107.315 35.716 107.471 35.8718 107.471 36.1832C107.471 36.4947 107.419 36.8062 107.419 37.1696C107.367 37.8963 107.367 38.0002 107.315 38.4155C107.315 38.6231 107.315 38.6231 107.523 38.5712C107.783 38.5193 108.043 38.4674 108.303 38.3636L109.863 38.0002C110.799 37.7925 110.747 37.7925 111.734 37.5849C112.462 37.4291 113.138 37.2734 113.866 37.1696C113.97 37.1696 114.022 37.1177 114.126 37.1177C114.334 37.1177 114.542 37.2215 114.594 37.4291C114.594 37.481 114.542 37.6887 114.386 37.8444Z" fill="#3E8B5E"/>
<path d="M99.2031 43.5029C99.1511 44.6969 98.8392 45.7871 98.2153 46.8253C98.0073 47.1887 97.6953 47.5002 97.3834 47.8117C97.2794 47.9155 97.1234 47.9674 97.0194 48.0712C96.2915 48.4865 95.5636 48.227 95.1996 47.4483C95.0956 47.1887 95.0436 46.9291 94.9917 46.6177C94.9917 46.41 94.9397 46.2543 94.8357 46.0466C94.5757 45.5275 94.6277 45.0084 94.7317 44.4373C94.8877 43.6587 95.1996 42.9319 95.6156 42.257C95.8235 41.8936 96.1355 41.5302 96.4995 41.3226C97.0714 40.9592 97.5913 40.9592 98.1633 41.3226C98.8392 41.7379 99.1511 42.3608 99.2031 43.0876C99.2551 43.1914 99.2031 43.3472 99.2031 43.5029ZM98.1633 42.9319C98.1113 42.6204 97.9553 42.3608 97.6953 42.2051C97.4353 41.9975 97.2274 41.9975 96.9674 42.2051C96.6554 42.4128 96.4475 42.7242 96.3435 43.1395C96.1355 44.022 96.0315 44.9046 95.9795 45.8909C95.9795 46.0466 95.9795 46.3062 96.0315 46.5138C96.0315 46.7215 96.0835 46.8772 96.1875 47.0849C96.2915 47.2406 96.3435 47.2925 96.4995 47.1887C96.6035 47.1368 96.7074 47.0849 96.8114 46.9811C97.0714 46.7215 97.3314 46.4619 97.4873 46.1505C97.7993 45.5794 98.0073 45.0084 98.1113 44.3335C98.2153 43.8663 98.2673 43.3991 98.1633 42.9319Z" fill="#3E8B5E"/>
<path d="M104.143 49.1615C103.883 49.2134 103.675 49.1096 103.519 48.7981C103.415 48.5385 103.363 48.279 103.311 47.9675C103.259 47.5003 103.259 47.0331 103.207 46.5658C103.207 46.5139 103.207 46.4101 103.207 46.3582H103.155C103.051 46.5658 102.947 46.7735 102.843 46.9811C102.739 47.1888 102.583 47.3964 102.375 47.5522C101.855 47.9675 101.283 47.9156 100.867 47.3964C100.711 47.1888 100.555 46.9292 100.451 46.6697C100.035 45.4757 99.9835 44.2817 100.139 43.0877C100.139 42.9839 100.191 42.932 100.191 42.8281C100.295 42.5686 100.555 42.4647 100.763 42.5167C100.971 42.5686 101.127 42.88 101.075 43.0877C100.815 44.126 101.023 45.1642 101.283 46.2025C101.335 46.3582 101.387 46.5139 101.491 46.6178C101.595 46.7216 101.595 46.7216 101.699 46.6178C101.855 46.462 101.907 46.3063 102.011 46.0986C102.271 45.5276 102.427 44.9566 102.583 44.3336C102.791 43.5549 102.947 42.7762 103.103 41.9456C103.103 41.8937 103.103 41.8418 103.155 41.7899C103.259 41.4784 103.415 41.3227 103.675 41.3746C103.935 41.3746 104.143 41.5822 104.143 41.8937C104.143 41.9975 104.143 42.1014 104.143 42.2052C104.143 42.9839 104.143 43.7626 104.143 44.5413C104.143 45.5795 104.195 46.5658 104.247 47.5522C104.247 47.8117 104.351 48.0713 104.351 48.3828C104.507 48.85 104.403 49.0576 104.143 49.1615Z" fill="#3E8B5E"/>
<path d="M115.841 48.4345C115.841 48.746 115.529 48.9536 115.217 48.8498C114.957 48.7979 114.853 48.5902 114.749 48.3826C114.594 48.0711 114.542 47.7077 114.49 47.3443C114.438 46.9809 114.438 46.5656 114.438 46.1503C114.282 46.2542 114.282 46.358 114.23 46.4618C114.022 46.8252 113.814 47.1886 113.554 47.5001C113.398 47.7077 113.19 47.9154 112.93 48.0711C112.306 48.4345 111.682 48.2788 111.318 47.6558C111.162 47.2924 111.058 46.929 111.058 46.5656C111.006 45.0083 111.578 43.7105 112.618 42.5684C113.034 42.1012 113.606 41.8416 114.282 41.8935C114.438 41.8935 114.594 41.9454 114.698 41.9973C114.853 42.0493 115.061 42.1012 115.269 42.1012C115.581 42.1012 115.789 42.3607 115.789 42.7241C115.789 42.9318 115.737 43.1913 115.737 43.399C115.633 44.0219 115.529 44.6968 115.477 45.3197C115.425 46.0465 115.425 46.7214 115.529 47.3962C115.581 47.6039 115.633 47.8635 115.737 48.0711C115.841 48.1749 115.893 48.2788 115.841 48.4345ZM114.126 42.8279C113.97 42.8279 113.866 42.8799 113.71 42.9837C113.554 43.0875 113.398 43.1913 113.242 43.3471C112.514 44.1777 112.098 45.164 112.046 46.2023C112.046 46.5137 112.046 46.7214 112.098 46.929C112.202 47.3443 112.306 47.3443 112.566 47.0848C112.878 46.7733 113.086 46.4099 113.294 46.0465C113.762 45.164 114.074 44.2815 114.438 43.3471C114.594 42.8799 114.49 42.776 114.126 42.8279Z" fill="#3E8B5E"/>
<path d="M124.004 41.1668C123.848 41.8417 123.692 42.4646 123.484 43.1395C123.172 44.2816 122.912 45.4236 122.6 46.5138C122.548 46.7214 122.444 46.9291 122.392 47.1367C122.34 47.2406 122.288 47.3963 122.184 47.5001C121.924 47.8116 121.509 47.8635 121.197 47.604C120.989 47.4482 120.885 47.2406 120.781 47.0329C120.469 46.5138 120.261 45.9428 120.053 45.3717C119.845 44.6449 119.689 43.9182 119.533 43.1395C119.481 42.9318 119.429 42.7242 119.377 42.5684C119.325 42.5165 119.325 42.4127 119.325 42.3608C119.273 42.1531 119.377 41.9455 119.585 41.8417C119.793 41.7898 120.001 41.8417 120.105 41.9974C120.209 42.1531 120.261 42.3089 120.313 42.5165C120.469 43.1395 120.625 43.7624 120.781 44.3335C120.937 44.9045 121.093 45.5275 121.353 46.0985C121.405 46.2023 121.405 46.3061 121.561 46.41C121.664 46.1504 121.716 45.8908 121.768 45.6313C122.132 44.1777 122.496 42.7242 122.86 41.2706C122.912 41.1149 122.912 41.0111 122.964 40.8553C122.964 40.7515 123.016 40.6477 123.068 40.5439C123.276 40.2843 123.692 40.2843 123.848 40.5958C124.056 40.7515 124.056 40.9592 124.004 41.1668Z" fill="#3E8B5E"/>
<path d="M128.892 43.5029C128.84 44.6969 128.528 45.7871 127.904 46.8253C127.696 47.1887 127.384 47.5002 127.072 47.8117C126.968 47.9155 126.812 47.9674 126.708 48.0712C125.98 48.4865 125.252 48.227 124.888 47.4483C124.784 47.1887 124.732 46.9291 124.68 46.6177C124.68 46.41 124.628 46.2543 124.524 46.0466C124.264 45.5275 124.316 45.0084 124.42 44.4373C124.576 43.6587 124.888 42.9319 125.304 42.257C125.512 41.8936 125.824 41.5302 126.188 41.3226C126.76 40.9592 127.28 40.9592 127.852 41.3226C128.528 41.7379 128.84 42.3608 128.892 43.0876C128.892 43.1914 128.892 43.3472 128.892 43.5029ZM127.852 42.9319C127.8 42.6204 127.644 42.3608 127.384 42.2051C127.124 41.9975 126.916 41.9975 126.656 42.2051C126.344 42.4128 126.136 42.7242 126.032 43.1395C125.824 44.022 125.72 44.9046 125.668 45.8909C125.668 46.0466 125.668 46.3062 125.72 46.5138C125.72 46.7215 125.772 46.8772 125.876 47.0849C125.98 47.2406 126.032 47.2925 126.188 47.1887C126.292 47.1368 126.396 47.0849 126.5 46.9811C126.76 46.7215 127.02 46.4619 127.176 46.1505C127.488 45.5794 127.696 45.0084 127.8 44.3335C127.904 43.8663 127.956 43.3991 127.852 42.9319Z" fill="#3E8B5E"/>
<path d="M133.572 49.1615C133.312 49.2134 133.104 49.1096 132.948 48.7981C132.844 48.5385 132.792 48.279 132.74 47.9675C132.688 47.5003 132.688 47.0331 132.636 46.5658C132.636 46.5139 132.636 46.4101 132.636 46.3582H132.584C132.48 46.5658 132.376 46.7735 132.272 46.9811C132.168 47.1888 132.012 47.3964 131.804 47.5522C131.284 47.9675 130.712 47.9156 130.296 47.3964C130.14 47.1888 129.984 46.9292 129.88 46.6697C129.464 45.4757 129.412 44.2817 129.568 43.0877C129.568 42.9839 129.62 42.932 129.62 42.8281C129.724 42.5686 129.984 42.4647 130.192 42.5167C130.4 42.5686 130.556 42.88 130.504 43.0877C130.244 44.126 130.452 45.1642 130.712 46.2025C130.764 46.3582 130.816 46.5139 130.92 46.6178C131.024 46.7216 131.024 46.7216 131.128 46.6178C131.284 46.462 131.336 46.3063 131.44 46.0986C131.7 45.5276 131.856 44.9566 132.012 44.3336C132.22 43.5549 132.376 42.7762 132.532 41.9456C132.532 41.8937 132.532 41.8418 132.584 41.7899C132.688 41.4784 132.844 41.3227 133.104 41.3746C133.364 41.3746 133.572 41.5822 133.572 41.8937C133.572 41.9975 133.572 42.1014 133.572 42.2052C133.572 42.9839 133.572 43.7626 133.572 44.5413C133.572 45.5795 133.624 46.5658 133.676 47.5522C133.676 47.8117 133.78 48.0713 133.78 48.3828C133.936 48.85 133.832 49.0576 133.572 49.1615Z" fill="#3E8B5E"/>
<path d="M137.574 42.0493C137.522 42.257 137.314 42.3608 137.158 42.3608C136.95 42.3608 136.794 42.2051 136.742 41.9974C136.742 41.9455 136.742 41.8417 136.69 41.7898C136.587 41.8417 136.535 41.8936 136.483 41.9455C135.963 42.7761 135.703 43.6586 136.275 44.593C136.431 44.8526 136.587 45.1641 136.794 45.4756C137.314 46.41 137.21 47.2925 136.535 48.1231C136.275 48.4346 135.963 48.746 135.599 48.9537C135.443 49.0575 135.287 49.1094 135.131 49.1094C134.819 49.1094 134.559 48.9018 134.507 48.6422C134.455 48.4865 134.455 48.3307 134.507 48.175C134.611 47.8635 134.871 47.7078 135.131 47.8635C135.287 47.9154 135.339 47.9154 135.443 47.8116C135.599 47.6559 135.755 47.4482 135.911 47.2925C136.119 46.9291 136.171 46.5657 136.015 46.2023C135.911 45.9428 135.755 45.6832 135.599 45.4236C135.391 45.0603 135.183 44.6969 135.079 44.2816C134.819 43.1395 135.131 42.1531 135.859 41.2706C136.067 41.0111 136.379 40.8553 136.742 40.8553C137.262 40.8034 137.73 41.3745 137.574 42.0493Z" fill="#3E8B5E"/>
<path d="M139.655 47.033C139.655 47.2926 139.499 47.6041 139.239 47.8117C139.031 47.9675 138.771 48.0194 138.511 47.9155C138.251 47.8117 138.095 47.6041 138.095 47.3445C138.043 46.9292 138.199 46.6177 138.511 46.3582C138.823 46.0467 139.291 46.2024 139.499 46.5658C139.655 46.6696 139.655 46.8254 139.655 47.033Z" fill="#3E8B5E"/>
<path d="M114.854 41.1149C114.75 41.1668 114.594 41.1668 114.438 41.1668C113.866 41.0111 113.346 40.8034 112.878 40.3881C112.826 40.3362 112.826 40.3362 112.826 40.2843C112.67 40.0767 112.67 39.8171 112.826 39.6095C112.982 39.4018 113.242 39.4018 113.502 39.5575C113.762 39.7133 113.97 39.9728 114.23 40.0767C114.386 40.1286 114.49 40.1805 114.646 40.1805C114.906 40.1286 115.062 40.2843 115.114 40.492C115.218 40.7515 115.114 41.0111 114.854 41.1149Z" fill="#3E8B5E"/>
</svg>
